# xmcd CD database file
#
# Track frame offsets:
#	150
#	28168
#	54041
#	81712
#	112893
#	138322
#	165032
#	185551
#	209058
#	231836
#
# Disc length: 3135 seconds
#
# Revision: 0
# Processed by: cddbd v1.5.1PL2 Copyright (c) Steve Scherf et al.
# Submitted via: CDex 1.51
#
DISCID=820c3d0a
DTITLE=Soul Café - Unspoken Request
DYEAR=2003
DGENRE=Jazz
TTITLE0=Birds of Pray
TTITLE1=Trujillo
TTITLE2=Pappy's Pacer
TTITLE3=Cellfone Malphunkshun
TTITLE4=Miracle
TTITLE5=Cool Blue Flame
TTITLE6=Gnome Sane
TTITLE7=Inside Out
TTITLE8=Once Upon a Remark
TTITLE9=Re-prize
EXTD=YEAR: 2003
EXTT0=
EXTT1=
EXTT2=
EXTT3=
EXTT4=
EXTT5=
EXTT6=
EXTT7=
EXTT8=
EXTT9=
PLAYORDER=
